<svg version="1.1" xmlns="http://www.w3.org/2000/svg" viewBox="0 0 548.3333333333335 372.49999999999994" width="548.3333333333335" height="372.49999999999994" filter="invert(93%) hue-rotate(180deg)">
  <!-- svg-source:excalidraw -->
  
  <defs>
    <style class="style-fonts">
      
    </style>
    
  </defs>
  <g transform="translate(10 38.33333333333326) rotate(0 60 158.33333333333334)" stroke="none"><path fill="#2f9e44" d="M 3.52,-5.25 Q 3.52,-5.25 10.55,-0.37 17.58,4.51 24.02,8.55 30.46,12.58 37.46,17.71 44.46,22.83 55.90,31.97 67.35,41.12 78.48,52.65 89.61,64.19 97.68,76.27 105.75,88.35 111.14,101.76 116.52,115.18 119.10,129.11 121.67,143.05 122.21,156.55 122.75,170.05 120.82,184.03 118.90,198.01 115.39,211.46 111.89,224.92 107.17,237.14 102.45,249.37 97.82,260.34 93.18,271.31 89.40,280.66 85.61,290.02 83.52,296.67 81.42,303.32 80.32,307.85 79.21,312.39 78.45,315.78 77.68,319.17 77.09,320.25 76.50,321.32 75.60,322.15 74.70,322.99 73.58,323.49 72.46,323.99 71.24,324.10 70.02,324.22 68.83,323.94 67.64,323.66 66.59,323.02 65.55,322.37 64.77,321.43 63.99,320.48 63.55,319.34 63.11,318.20 63.06,316.97 63.01,315.75 63.35,314.57 63.70,313.39 64.40,312.39 65.10,311.38 66.08,310.65 67.07,309.92 68.23,309.55 69.40,309.17 70.63,309.19 71.85,309.20 73.01,309.61 74.16,310.01 75.13,310.77 76.10,311.52 76.77,312.55 77.45,313.57 77.76,314.75 78.07,315.94 77.99,317.16 77.91,318.39 77.44,319.52 76.97,320.65 76.16,321.57 75.36,322.50 74.30,323.12 73.24,323.73 72.04,323.98 70.84,324.23 69.63,324.08 68.41,323.93 67.30,323.41 66.20,322.88 65.32,322.02 64.44,321.17 63.88,320.08 63.32,318.99 63.14,317.78 62.95,316.56 63.17,315.36 63.38,314.15 63.38,314.15 63.38,314.15 64.90,311.02 66.42,307.90 68.42,303.61 70.41,299.33 73.12,292.70 75.83,286.07 79.64,276.63 83.45,267.20 88.01,256.37 92.58,245.55 97.10,233.89 101.62,222.23 104.99,209.38 108.35,196.53 110.20,183.48 112.05,170.44 111.56,157.71 111.06,144.98 108.73,132.08 106.40,119.18 101.47,106.81 96.55,94.44 89.04,83.21 81.53,71.99 70.87,61.07 60.21,50.15 48.89,41.34 37.57,32.53 30.66,27.78 23.75,23.03 17.30,18.78 10.86,14.54 3.66,9.89 -3.52,5.25 -4.10,4.75 -4.67,4.26 -5.12,3.64 -5.56,3.01 -5.84,2.30 -6.12,1.59 -6.22,0.84 -6.32,0.08 -6.24,-0.67 -6.16,-1.42 -5.90,-2.14 -5.64,-2.86 -5.21,-3.49 -4.79,-4.13 -4.23,-4.64 -3.66,-5.15 -2.99,-5.52 -2.32,-5.88 -1.58,-6.07 -0.84,-6.27 -0.08,-6.28 0.67,-6.29 1.41,-6.12 2.16,-5.94 2.84,-5.60 3.52,-5.25 3.52,-5.25 L 3.52,-5.25 Z"></path></g><g transform="translate(75.00000000000023 361.6666666666667) rotate(0 127.5 -175.83333333333334)" stroke="none"><path fill="#2f9e44" d="M -1.16,-6.13 Q -1.16,-6.13 8.91,-7.92 19.00,-9.70 31.76,-12.78 44.53,-15.86 60.38,-20.93 76.23,-26.00 92.98,-32.43 109.72,-38.85 125.91,-45.85 142.09,-52.86 155.91,-60.96 169.74,-69.07 182.18,-78.62 194.62,-88.17 205.06,-98.32 215.50,-108.47 224.01,-120.60 232.53,-132.72 237.36,-151.63 242.19,-170.53 244.34,-188.12 246.49,-205.71 244.08,-223.23 241.67,-240.75 236.44,-257.13 231.20,-273.51 224.31,-286.97 217.42,-300.43 209.93,-309.70 202.44,-318.97 194.80,-324.57 187.16,-330.17 179.66,-334.49 172.16,-338.81 166.99,-340.67 161.81,-342.52 156.27,-342.95 150.73,-343.39 148.83,-343.45 146.93,-343.51 145.66,-343.94 144.40,-344.38 143.34,-345.20 142.28,-346.02 141.54,-347.13 140.79,-348.24 140.44,-349.54 140.10,-350.83 140.18,-352.17 140.26,-353.50 140.77,-354.74 141.27,-355.98 142.15,-356.99 143.02,-358.01 144.17,-358.69 145.32,-359.37 146.63,-359.65 147.94,-359.93 149.27,-359.77 150.60,-359.62 151.81,-359.05 153.02,-358.47 153.99,-357.55 154.95,-356.62 155.57,-355.43 156.19,-354.24 156.40,-352.92 156.60,-351.60 156.38,-350.28 156.15,-348.96 155.51,-347.78 154.88,-346.60 153.90,-345.69 152.92,-344.78 151.70,-344.23 150.48,-343.67 149.15,-343.54 147.82,-343.40 146.51,-343.70 145.21,-344.00 144.06,-344.70 142.92,-345.40 142.06,-346.42 141.21,-347.45 140.72,-348.70 140.23,-349.95 140.17,-351.28 140.11,-352.62 140.48,-353.91 140.85,-355.19 141.61,-356.30 142.37,-357.40 143.44,-358.20 144.51,-359.00 145.78,-359.42 147.05,-359.84 148.39,-359.83 149.73,-359.82 149.73,-359.82 149.73,-359.82 154.34,-358.39 158.95,-356.97 162.94,-355.36 166.92,-353.75 172.17,-350.83 177.43,-347.91 185.44,-343.26 193.45,-338.60 202.02,-332.10 210.59,-325.61 218.68,-315.43 226.78,-305.25 234.01,-290.98 241.24,-276.72 246.68,-259.45 252.12,-242.17 254.55,-223.34 256.97,-204.51 254.70,-186.18 252.43,-167.85 246.87,-147.33 241.31,-126.82 232.13,-113.84 222.95,-100.85 212.05,-90.26 201.15,-79.67 188.18,-69.72 175.22,-59.77 160.83,-51.31 146.45,-42.86 130.08,-35.69 113.71,-28.53 96.71,-21.91 79.71,-15.28 63.52,-9.96 47.32,-4.64 34.28,-1.30 21.24,2.03 11.20,4.08 1.16,6.13 0.41,6.18 -0.33,6.23 -1.07,6.10 -1.81,5.97 -2.50,5.67 -3.19,5.36 -3.79,4.90 -4.38,4.44 -4.85,3.85 -5.32,3.26 -5.63,2.58 -5.95,1.90 -6.09,1.16 -6.23,0.42 -6.19,-0.33 -6.15,-1.08 -5.93,-1.80 -5.71,-2.52 -5.33,-3.17 -4.94,-3.81 -4.41,-4.35 -3.88,-4.89 -3.24,-5.28 -2.60,-5.68 -1.88,-5.90 -1.16,-6.13 -1.16,-6.13 L -1.16,-6.13 Z"></path></g><g transform="translate(471.66666666666686 362.49999999999994) rotate(0 -127.5 -175.83333333333334)" stroke="none"><path fill="#2f9e44" d="M -1.16,6.13 Q -1.16,6.13 -11.20,4.08 -21.24,2.03 -34.28,-1.30 -47.32,-4.64 -63.52,-9.96 -79.71,-15.28 -96.71,-21.91 -113.71,-28.53 -130.08,-35.69 -146.45,-42.86 -160.83,-51.31 -175.22,-59.77 -188.18,-69.72 -201.15,-79.67 -212.05,-90.26 -222.95,-100.85 -232.13,-113.84 -241.31,-126.82 -246.87,-147.33 -252.43,-167.85 -254.70,-186.18 -256.97,-204.51 -254.55,-223.34 -252.12,-242.17 -246.68,-259.45 -241.24,-276.72 -234.01,-290.98 -226.78,-305.25 -218.68,-315.43 -210.59,-325.61 -202.02,-332.10 -193.45,-338.60 -185.44,-343.26 -177.43,-347.91 -172.17,-350.83 -166.92,-353.75 -162.94,-355.36 -158.95,-356.97 -155.06,-357.85 -151.17,-358.73 -149.96,-358.73 -148.76,-358.74 -147.61,-358.37 -146.47,-357.99 -145.51,-357.27 -144.54,-356.55 -143.86,-355.56 -143.18,-354.57 -142.84,-353.41 -142.51,-352.25 -142.57,-351.05 -142.63,-349.85 -143.06,-348.72 -143.50,-347.60 -144.27,-346.68 -145.05,-345.75 -146.07,-345.13 -147.10,-344.50 -148.27,-344.23 -149.45,-343.96 -150.65,-344.08 -151.84,-344.21 -152.94,-344.70 -154.04,-345.20 -154.92,-346.02 -155.80,-346.84 -156.37,-347.90 -156.94,-348.96 -157.14,-350.15 -157.35,-351.34 -157.16,-352.53 -156.98,-353.72 -156.42,-354.78 -155.86,-355.85 -155.00,-356.69 -154.13,-357.52 -153.04,-358.03 -151.95,-358.55 -150.75,-358.69 -149.56,-358.82 -148.38,-358.57 -147.20,-358.32 -146.17,-357.71 -145.13,-357.10 -144.34,-356.19 -143.56,-355.27 -143.10,-354.16 -142.65,-353.04 -142.58,-351.84 -142.50,-350.64 -142.82,-349.48 -143.13,-348.32 -143.80,-347.31 -144.47,-346.31 -145.42,-345.58 -146.37,-344.84 -147.51,-344.45 -148.65,-344.06 -148.65,-344.06 -148.65,-344.06 -155.23,-343.29 -161.81,-342.52 -166.99,-340.67 -172.16,-338.81 -179.66,-334.49 -187.16,-330.17 -194.80,-324.57 -202.44,-318.97 -209.93,-309.70 -217.42,-300.43 -224.31,-286.97 -231.20,-273.51 -236.44,-257.13 -241.67,-240.75 -244.08,-223.23 -246.49,-205.71 -244.34,-188.12 -242.19,-170.53 -237.36,-151.63 -232.53,-132.72 -224.01,-120.60 -215.50,-108.47 -205.06,-98.32 -194.62,-88.17 -182.18,-78.62 -169.74,-69.07 -155.91,-60.96 -142.09,-52.86 -125.91,-45.85 -109.72,-38.85 -92.98,-32.43 -76.23,-26.00 -60.38,-20.93 -44.53,-15.86 -31.76,-12.78 -19.00,-9.70 -8.91,-7.92 1.16,-6.13 1.88,-5.90 2.60,-5.68 3.24,-5.28 3.88,-4.89 4.41,-4.35 4.94,-3.81 5.33,-3.17 5.71,-2.52 5.93,-1.80 6.15,-1.08 6.19,-0.33 6.23,0.42 6.09,1.16 5.95,1.90 5.63,2.58 5.32,3.27 4.85,3.85 4.38,4.44 3.79,4.90 3.19,5.37 2.50,5.67 1.81,5.97 1.07,6.10 0.33,6.23 -0.41,6.18 -1.16,6.13 -1.16,6.13 L -1.16,6.13 Z"></path></g><g transform="translate(538.3333333333335 41.66666666666657) rotate(0 -60 158.33333333333337)" stroke="none"><path fill="#2f9e44" d="M 3.52,5.25 Q 3.52,5.25 -3.66,9.89 -10.86,14.54 -17.30,18.78 -23.75,23.03 -30.66,27.78 -37.57,32.53 -48.89,41.34 -60.21,50.15 -70.87,61.07 -81.53,71.99 -89.04,83.21 -96.55,94.44 -101.47,106.81 -106.40,119.18 -108.73,132.08 -111.06,144.98 -111.56,157.71 -112.05,170.44 -110.20,183.48 -108.35,196.53 -104.99,209.38 -101.62,222.23 -97.10,233.89 -92.58,245.55 -88.01,256.37 -83.45,267.20 -79.64,276.63 -75.83,286.07 -73.12,292.70 -70.41,299.33 -68.42,303.61 -66.42,307.90 -65.47,309.67 -64.52,311.44 -64.31,312.62 -64.10,313.80 -64.28,314.98 -64.46,316.16 -65.01,317.23 -65.56,318.29 -66.41,319.13 -67.27,319.96 -68.35,320.48 -69.43,321.00 -70.62,321.14 -71.81,321.28 -72.98,321.04 -74.15,320.80 -75.19,320.19 -76.22,319.59 -77.01,318.69 -77.79,317.79 -78.25,316.68 -78.71,315.57 -78.79,314.38 -78.87,313.18 -78.56,312.03 -78.26,310.87 -77.60,309.87 -76.94,308.87 -75.99,308.13 -75.05,307.40 -73.92,307.00 -72.79,306.60 -71.59,306.59 -70.40,306.57 -69.26,306.94 -68.12,307.31 -67.16,308.02 -66.19,308.74 -65.51,309.72 -64.83,310.70 -64.49,311.85 -64.16,313.00 -64.21,314.20 -64.26,315.39 -64.69,316.51 -65.11,317.63 -65.88,318.55 -66.64,319.47 -67.66,320.10 -68.68,320.73 -69.84,321.00 -71.01,321.27 -72.20,321.16 -73.39,321.04 -74.49,320.56 -75.58,320.07 -76.46,319.25 -77.34,318.44 -77.91,317.39 -78.48,316.34 -78.48,316.34 -78.48,316.34 -78.85,314.37 -79.21,312.39 -80.32,307.85 -81.42,303.32 -83.52,296.67 -85.61,290.02 -89.40,280.66 -93.18,271.31 -97.82,260.34 -102.45,249.37 -107.17,237.14 -111.89,224.92 -115.39,211.46 -118.90,198.01 -120.82,184.03 -122.75,170.05 -122.21,156.55 -121.67,143.05 -119.10,129.11 -116.52,115.18 -111.14,101.76 -105.75,88.35 -97.68,76.27 -89.61,64.19 -78.48,52.65 -67.35,41.12 -55.90,31.97 -44.46,22.83 -37.46,17.71 -30.46,12.58 -24.02,8.55 -17.58,4.51 -10.55,-0.37 -3.52,-5.25 -2.84,-5.60 -2.16,-5.94 -1.41,-6.12 -0.67,-6.29 0.08,-6.28 0.85,-6.27 1.58,-6.07 2.32,-5.88 2.99,-5.52 3.66,-5.15 4.23,-4.64 4.79,-4.13 5.21,-3.49 5.64,-2.86 5.90,-2.14 6.16,-1.42 6.24,-0.67 6.32,0.08 6.22,0.84 6.12,1.60 5.84,2.30 5.56,3.01 5.12,3.64 4.67,4.26 4.10,4.76 3.52,5.25 3.52,5.25 L 3.52,5.25 Z"></path></g></svg>