<svg version="1.1" xmlns="http://www.w3.org/2000/svg" viewBox="0 0 850.4774720549999 571.605668649514" width="850.4774720549999" height="571.605668649514" filter="invert(93%) hue-rotate(180deg)"><!-- svg-source:excalidraw --><metadata></metadata><defs><style class="style-fonts">
      </style></defs><g stroke-linecap="round" transform="translate(-94.45992066615622 238.9817104834906) rotate(53.39292518739251 294.21050195429336 17.821123841266626)"><path d="M8.91 0 C170.43 0, 331.96 0, 579.51 0 C585.45 0, 588.42 2.97, 588.42 8.91 C588.42 13.76, 588.42 18.61, 588.42 26.73 C588.42 32.67, 585.45 35.64, 579.51 35.64 C456.8 35.64, 334.08 35.64, 8.91 35.64 C2.97 35.64, 0 32.67, 0 26.73 C0 20.58, 0 14.43, 0 8.91 C0 2.97, 2.97 0, 8.91 0" stroke="none" stroke-width="0" fill="#009abd"></path><path d="M8.91 0 C176.82 0, 344.72 0, 579.51 0 M8.91 0 C181.45 0, 354 0, 579.51 0 M579.51 0 C585.45 0, 588.42 2.97, 588.42 8.91 M579.51 0 C585.45 0, 588.42 2.97, 588.42 8.91 M588.42 8.91 C588.42 14.92, 588.42 20.93, 588.42 26.73 M588.42 8.91 C588.42 14.27, 588.42 19.63, 588.42 26.73 M588.42 26.73 C588.42 32.67, 585.45 35.64, 579.51 35.64 M588.42 26.73 C588.42 32.67, 585.45 35.64, 579.51 35.64 M579.51 35.64 C394.71 35.64, 209.92 35.64, 8.91 35.64 M579.51 35.64 C381.05 35.64, 182.6 35.64, 8.91 35.64 M8.91 35.64 C2.97 35.64, 0 32.67, 0 26.73 M8.91 35.64 C2.97 35.64, 0 32.67, 0 26.73 M0 26.73 C0 22.38, 0 18.02, 0 8.91 M0 26.73 C0 22.25, 0 17.77, 0 8.91 M0 8.91 C0 2.97, 2.97 0, 8.91 0 M0 8.91 C0 2.97, 2.97 0, 8.91 0" stroke="transparent" stroke-width="4" fill="none"></path></g><g stroke-linecap="round" transform="translate(281.900079333843 305.70171048348993) rotate(126.86989764584412 200.81050195429327 17.821123841266626)"><path d="M8.91 0 C151.97 0, 295.02 0, 392.71 0 C398.65 0, 401.62 2.97, 401.62 8.91 C401.62 15.88, 401.62 22.85, 401.62 26.73 C401.62 32.67, 398.65 35.64, 392.71 35.64 C305.01 35.64, 217.31 35.64, 8.91 35.64 C2.97 35.64, 0 32.67, 0 26.73 C0 22.16, 0 17.58, 0 8.91 C0 2.97, 2.97 0, 8.91 0" stroke="none" stroke-width="0" fill="#009abd"></path><path d="M8.91 0 C119.13 0, 229.35 0, 392.71 0 M8.91 0 C117.48 0, 226.06 0, 392.71 0 M392.71 0 C398.65 0, 401.62 2.97, 401.62 8.91 M392.71 0 C398.65 0, 401.62 2.97, 401.62 8.91 M401.62 8.91 C401.62 15.6, 401.62 22.28, 401.62 26.73 M401.62 8.91 C401.62 12.84, 401.62 16.77, 401.62 26.73 M401.62 26.73 C401.62 32.67, 398.65 35.64, 392.71 35.64 M401.62 26.73 C401.62 32.67, 398.65 35.64, 392.71 35.64 M392.71 35.64 C273.16 35.64, 153.61 35.64, 8.91 35.64 M392.71 35.64 C257.18 35.64, 121.65 35.64, 8.91 35.64 M8.91 35.64 C2.97 35.64, 0 32.67, 0 26.73 M8.91 35.64 C2.97 35.64, 0 32.67, 0 26.73 M0 26.73 C0 20.29, 0 13.85, 0 8.91 M0 26.73 C0 22.82, 0 18.91, 0 8.91 M0 8.91 C0 2.97, 2.97 0, 8.91 0 M0 8.91 C0 2.97, 2.97 0, 8.91 0" stroke="transparent" stroke-width="4" fill="none"></path></g><g stroke-linecap="round" transform="translate(128.56376985511724 296.98171048349013) rotate(53.39292518739251 294.21050195429325 17.821123841266626)"><path d="M8.91 0 C140.28 0, 271.65 0, 579.51 0 C585.45 0, 588.42 2.97, 588.42 8.91 C588.42 15.57, 588.42 22.23, 588.42 26.73 C588.42 32.67, 585.45 35.64, 579.51 35.64 C435.3 35.64, 291.08 35.64, 8.91 35.64 C2.97 35.64, 0 32.67, 0 26.73 C0 20.74, 0 14.74, 0 8.91 C0 2.97, 2.97 0, 8.91 0" stroke="none" stroke-width="0" fill="#009abd"></path><path d="M8.91 0 C163.58 0, 318.25 0, 579.51 0 M8.91 0 C174.25 0, 339.59 0, 579.51 0 M579.51 0 C585.45 0, 588.42 2.97, 588.42 8.91 M579.51 0 C585.45 0, 588.42 2.97, 588.42 8.91 M588.42 8.91 C588.42 14.78, 588.42 20.64, 588.42 26.73 M588.42 8.91 C588.42 15.28, 588.42 21.65, 588.42 26.73 M588.42 26.73 C588.42 32.67, 585.45 35.64, 579.51 35.64 M588.42 26.73 C588.42 32.67, 585.45 35.64, 579.51 35.64 M579.51 35.64 C392.04 35.64, 204.57 35.64, 8.91 35.64 M579.51 35.64 C405.62 35.64, 231.72 35.64, 8.91 35.64 M8.91 35.64 C2.97 35.64, 0 32.67, 0 26.73 M8.91 35.64 C2.97 35.64, 0 32.67, 0 26.73 M0 26.73 C0 22.27, 0 17.8, 0 8.91 M0 26.73 C0 22.95, 0 19.16, 0 8.91 M0 8.91 C0 2.97, 2.97 0, 8.91 0 M0 8.91 C0 2.97, 2.97 0, 8.91 0" stroke="transparent" stroke-width="4" fill="none"></path></g><g stroke-linecap="round" transform="translate(504.9237698551169 363.7017104834895) rotate(126.86989764584412 200.8105019542934 17.821123841266626)"><path d="M8.91 0 C101.64 0, 194.37 0, 392.71 0 C398.65 0, 401.62 2.97, 401.62 8.91 C401.62 13.22, 401.62 17.53, 401.62 26.73 C401.62 32.67, 398.65 35.64, 392.71 35.64 C300.12 35.64, 207.53 35.64, 8.91 35.64 C2.97 35.64, 0 32.67, 0 26.73 C0 22.24, 0 17.75, 0 8.91 C0 2.97, 2.97 0, 8.91 0" stroke="none" stroke-width="0" fill="#009abd"></path><path d="M8.91 0 C86.96 0, 165.02 0, 392.71 0 M8.91 0 C129.66 0, 250.42 0, 392.71 0 M392.71 0 C398.65 0, 401.62 2.97, 401.62 8.91 M392.71 0 C398.65 0, 401.62 2.97, 401.62 8.91 M401.62 8.91 C401.62 13.43, 401.62 17.95, 401.62 26.73 M401.62 8.91 C401.62 15.42, 401.62 21.92, 401.62 26.73 M401.62 26.73 C401.62 32.67, 398.65 35.64, 392.71 35.64 M401.62 26.73 C401.62 32.67, 398.65 35.64, 392.71 35.64 M392.71 35.64 C252.02 35.64, 111.33 35.64, 8.91 35.64 M392.71 35.64 C304.92 35.64, 217.14 35.64, 8.91 35.64 M8.91 35.64 C2.97 35.64, 0 32.67, 0 26.73 M8.91 35.64 C2.97 35.64, 0 32.67, 0 26.73 M0 26.73 C0 21.45, 0 16.17, 0 8.91 M0 26.73 C0 20.95, 0 15.16, 0 8.91 M0 8.91 C0 2.97, 2.97 0, 8.91 0 M0 8.91 C0 2.97, 2.97 0, 8.91 0" stroke="transparent" stroke-width="4" fill="none"></path></g></svg>